<?xml version="1.0" encoding="utf-8"?>
<!-- Generator: Adobe Illustrator 21.0.0, SVG Export Plug-In . SVG Version: 6.00 Build 0)  -->
<svg version="1.1" id="图层_1" xmlns="http://www.w3.org/2000/svg" xmlns:xlink="http://www.w3.org/1999/xlink" x="0px" y="0px"
	 viewBox="0 0 460 460" style="enable-background:new 0 0 460 460;" xml:space="preserve">
<style type="text/css">
	.st0{display:none;fill:#399BE5;}
</style>
<polygon class="st0" points="96.2,127.9 126.5,127.9 77.5,414.9 421.4,416.2 405.5,437.2 371.7,454.2 89.4,446 62.8,446 45.8,413.9 
	"/>
<path d="M273.3,274.1l-54.8,52.3l-29.1-29.1c-2.7-2.7-7.2-2.7-9.9,0c-2.7,2.7-2.7,7.2,0,9.9l33.9,33.9c2.7,2.7,7,2.7,9.8,0.1
	l59.7-57.1c1.8-1.7,2.6-4.3,2-6.7c-0.6-2.4-2.4-4.4-4.9-5.1C277.7,271.7,275.1,272.3,273.3,274.1L273.3,274.1z"/>
<path d="M381.2,144.7c-2.4-15.3-15.6-26.6-31.1-26.5h-31.9V87.9c0-48.6-39.4-87.9-87.9-87.9s-87.9,39.4-87.9,87.9v30.2h-31.9
	c-15.5-0.1-28.7,11.2-31.1,26.5L33.6,402.8c-0.1,0.4-0.1,0.8-0.1,1.2c0,30.9,25.1,55.9,56,56h281.6c30.9,0,55.9-25.1,56-56
	c0-0.4,0-0.8-0.1-1.2L381.2,144.7z M156.3,87.9c0-40.8,33.1-73.9,73.9-73.9c40.8,0,73.9,33.1,73.9,73.9v30.2H156.3V87.9z M371.1,446
	H89.4c-22.9,0-41.6-18.4-42-41.4l45.6-257.5c0,0,0-0.1,0-0.1c1.3-8.5,8.7-14.8,17.3-14.8h31.9v46.4c0,3.9,3.1,7,7,7s7-3.1,7-7v-46.4
	h147.9v46.4c0,3.9,3.1,7,7,7c3.9,0,7-3.1,7-7v-46.4h31.9c8.6,0,16,6.3,17.3,14.8c0,0,0,0.1,0,0.1l45.6,257.5
	C412.7,427.6,394,446,371.1,446L371.1,446z"/>
</svg>
