<?xml version="1.0" encoding="utf-8"?>
<!-- Generator: Adobe Illustrator 21.0.0, SVG Export Plug-In . SVG Version: 6.00 Build 0)  -->
<svg version="1.1" id="图层_1" xmlns="http://www.w3.org/2000/svg" xmlns:xlink="http://www.w3.org/1999/xlink" x="0px" y="0px"
	 viewBox="0 0 200 200" style="enable-background:new 0 0 200 200;" xml:space="preserve">
<style type="text/css">
	.st0{fill:#231815;}
</style>
<path class="st0" d="M23.2,92.3h-1.4c-1.8-0.9-3.6-3.2-2.7-5.9c12.3-48.2,43.2-76.8,81.8-75.9c42.3,0.9,69.5,26.4,79.1,73.6
	c0.5,2.3-0.9,5-3.6,5.5c-2.3,0.5-5-0.9-5.5-3.6c-8.6-43.2-32.3-65.5-70.5-66.4C66.4,18.6,39.1,45,27.7,88.6
	C27.3,90.9,25.5,92.3,23.2,92.3z"/>
<path class="st0" d="M182.7,162.3h-19.1c-8.2,0-15-6.8-15-15V97.7c0-8.2,6.8-15,15-15h19.1c8.2,0,15,6.8,15,15v49.5
	C197.3,155.5,190.9,162.3,182.7,162.3L182.7,162.3z M163.6,92.3c-3.2,0-5.9,2.7-5.9,5.9v49.5c0,3.2,2.7,5.9,5.9,5.9h19.1
	c3.2,0,5.9-2.7,5.9-5.9v-50c0-3.2-2.7-5.9-5.9-5.9h-19.1V92.3z M71.8,177.7c-17.3,0-33.2-3.2-35.9-3.6c-9.1-0.9-33.6-18.6-33.6-28.6
	v-44.5c0-9.5,7.7-17.3,17.3-17.3h14.1c9.5,0,17.3,7.7,17.3,17.3v44.5c0,2.7-1.8,4.5-4.5,4.5c-2.7,0-4.5-1.8-4.5-4.5v-44.5
	c0-4.5-3.6-8.2-8.2-8.2H20c-4.5,0-8.2,3.6-8.2,8.2v44.5c0.9,4.5,19.5,19.1,25,19.5h0.9c0.5,0,30.9,6.4,53.2,1.8
	c2.3-0.5,5,0.9,5.5,3.6c0.5,2.3-0.9,5-3.6,5.5C85.9,177.3,79.1,177.7,71.8,177.7z"/>
<path class="st0" d="M107.7,189.5c-10.9,0-19.5-8.6-19.5-19.5c0-10.9,8.6-19.5,19.5-19.5s19.5,8.6,19.5,19.5
	C127.3,180.9,118.6,189.5,107.7,189.5L107.7,189.5z M107.7,159.5c-5.9,0-10.5,4.5-10.5,10.5c0,5.9,4.5,10.5,10.5,10.5
	c5.9,0,10.5-4.5,10.5-10.5S113.6,159.5,107.7,159.5z"/>
</svg>
