<?xml version="1.0" standalone="no"?><!DOCTYPE svg PUBLIC "-//W3C//DTD SVG 1.1//EN" "http://www.w3.org/Graphics/SVG/1.1/DTD/svg11.dtd"><svg t="1567147044441" class="icon" viewBox="0 0 1024 1024" version="1.1" xmlns="http://www.w3.org/2000/svg" p-id="27112" xmlns:xlink="http://www.w3.org/1999/xlink" width="200" height="200"><defs><style type="text/css"></style></defs><path d="M809.286 82.487h-591.109c-39.747 0-72.363 32.614-72.363 72.363v729.712c0 39.747 32.614 72.363 72.363 72.363h496.329l167.138-172.238v-629.838c0-39.747-32.614-72.363-72.363-72.363zM711.446 889.657v-67.874c0-16.103 13.249-29.148 29.148-29.148h62.372l-91.521 97.025zM834.561 739.842h-88.666c-44.844 0-81.532 36.689-81.532 81.532v85.61h-442.516c-16.103 0-29.148-13.249-29.148-29.148v-713.406c0-16.103 13.249-29.148 29.148-29.148h583.568c16.103 0 29.148 13.249 29.148 29.148v575.414z" p-id="27113"></path><path d="M266.484 312.818h382.386c13.654 0 24.868-11.211 24.868-25.070 0-13.654-11.414-24.868-25.070-24.868h-382.183c-13.654 0-24.868 11.211-24.868 24.868 0 13.859 11.211 25.070 24.868 25.070z" p-id="27114"></path><path d="M266.691 383.344c-13.654 0-24.868 11.414-24.868 25.070s11.211 24.868 24.868 24.868h326.128c13.654 0 24.868-11.211 25.070-24.868 0-13.859-11.414-25.070-25.070-25.070h-326.128z" p-id="27115"></path><path d="M714.507 503.807h-448.018c-13.654 0-24.868 11.211-24.868 24.868 0 13.859 11.211 25.070 24.868 25.070h448.018c13.654 0 24.868-11.211 25.070-25.070 0-13.654-11.414-24.868-25.070-24.868z" p-id="27116"></path></svg>