<?xml version="1.0" encoding="utf-8"?>
<!-- Generator: Adobe Illustrator 21.0.0, SVG Export Plug-In . SVG Version: 6.00 Build 0)  -->
<svg version="1.1" id="图层_1" xmlns="http://www.w3.org/2000/svg" xmlns:xlink="http://www.w3.org/1999/xlink" x="0px" y="0px"
	 viewBox="0 0 200 200" style="enable-background:new 0 0 200 200;" xml:space="preserve">
<style type="text/css">
	.st0{fill:#399BE5;}
</style>
<path class="st0" d="M103.9,107.8c-4.2-3.8-33.2-0.5-47.9,13c-26.5,9.3-46.1,61.8-32.7,63.5c2.2-3.2,5.1,0.7,6.4-2.2
	c16.5-37.1,21-37.2,29.1-45.8C68.1,126.2,89,117.3,103.9,107.8z"/>
<g>
	<g>
		<path d="M178.4,186.1H21.7c-2.1,0-4-0.9-5.2-2.4c-0.1-0.1-0.2-0.3-0.3-0.4c-1.5-1.7-1.7-4.2-1.4-5.8c7.7-40.6,40.1-70.9,78.9-73.8
			h0.2h3c18.7,0,36.7,6.1,45.4,11.7c22.9,14.1,38.1,36.1,42.9,62.1v0.1c0.3,2.2-0.2,4.2-1.6,6C182.5,185.2,180.5,186.1,178.4,186.1z
			 M16.4,183.6L16.4,183.6L16.4,183.6z M20.5,180.7c0.2,0.2,0.7,0.4,1.2,0.4h156.7c0.5,0,1-0.2,1.2-0.5c0.6-0.7,0.7-1.4,0.6-2.2
			c-4.5-24.5-19-45.4-40.6-58.7c-8.2-5.3-25-10.9-42.7-10.9H94c-36.4,2.8-67,31.4-74.2,69.7c-0.1,0.6,0,1.4,0.2,1.6
			C20.2,180.3,20.4,180.5,20.5,180.7z"/>
	</g>
</g>
<path class="st0" d="M99.8,19.7c-26.6,2-40.1,24.9-39.7,32.9c2.1,33.1,16.2,39,35.4,43.4c3.1,0.7-15.6-15.5-17.4-38.1
	C79.6,32.2,102.6,19.5,99.8,19.7z"/>
<g>
	<g>
		<path d="M100,15.8c-23.2,0-42,18.8-42,42s18.8,42,42,42s42-18.8,42-42S123.2,15.8,100,15.8z M100,94.8c-20.4,0-37-16.6-37-37
			s16.6-37,37-37s37,16.6,37,37S120.4,94.8,100,94.8z"/>
	</g>
</g>
</svg>
