<?xml version="1.0" standalone="no"?><!DOCTYPE svg PUBLIC "-//W3C//DTD SVG 1.1//EN" "http://www.w3.org/Graphics/SVG/1.1/DTD/svg11.dtd"><svg t="1566875005365" class="icon" viewBox="0 0 1024 1024" version="1.1" xmlns="http://www.w3.org/2000/svg" p-id="3138" xmlns:xlink="http://www.w3.org/1999/xlink" width="200" height="200"><defs><style type="text/css"></style></defs><path d="M815.104 272.896h-169.984V167.936c0-22.016-17.92-39.936-39.936-39.936h-186.88c-22.016 0-39.936 17.92-39.936 39.936v105.472h-169.984c-13.824 0-25.088 11.264-25.088 25.088s11.264 25.088 25.088 25.088h606.72c13.824 0 25.088-11.264 25.088-25.088 0.512-14.336-11.264-25.6-25.088-25.6z m-385.536 0V178.688h164.864v94.208h-164.864z m296.96 110.08c-13.824 0-25.088 11.264-25.088 25.088v437.248h-378.368V408.576c0-13.824-11.264-25.088-25.088-25.088s-25.088 11.264-25.088 25.088v446.976c0 22.528 18.432 40.448 41.472 40.448h396.8c23.04 0 41.472-18.432 41.472-40.448V408.576c-1.024-14.336-12.288-25.6-26.112-25.6z" fill="#999999" p-id="3139"></path><path d="M469.504 739.84V408.576c0-13.824-11.264-25.088-25.088-25.088s-25.088 11.264-25.088 25.088v331.264c0 13.824 11.264 25.088 25.088 25.088s25.088-11.264 25.088-25.088z m135.168 0V408.576c0-13.824-11.264-25.088-25.088-25.088s-25.088 11.264-25.088 25.088v331.264c0 13.824 11.264 25.088 25.088 25.088s25.088-11.264 25.088-25.088z" fill="#999999" p-id="3140"></path></svg>