<?xml version="1.0" standalone="no"?><!DOCTYPE svg PUBLIC "-//W3C//DTD SVG 1.1//EN" "http://www.w3.org/Graphics/SVG/1.1/DTD/svg11.dtd"><svg t="1567146058398" class="icon" viewBox="0 0 1024 1024" version="1.1" xmlns="http://www.w3.org/2000/svg" p-id="18365" xmlns:xlink="http://www.w3.org/1999/xlink" width="200" height="200"><defs><style type="text/css"></style></defs><path d="M860.35712891 455.26748047h71.21601562v-365.14248047h-365.9493164v71.81542969h243.33398437l-204.28857422 205.7493164c-54.27246094-43.15693359-122.73486328-69.06181641-196.83544922-69.0618164l-4.25478515 0.02988281c-84.83027344 1.11533203-164.15771484 35.20458984-223.35732422 95.97568359-59.19257813 60.77724609-91.18037109 140.96601563-90.06416016 225.79628907 2.27373047 172.83427734 144.70488281 313.44521484 317.50488281 313.44521484l4.25478516-0.02988281c84.83642578-1.11005859 164.16474609-35.18701172 223.36259766-95.96337891 59.20400391-60.77021484 91.18564453-140.96601563 90.0703125-225.79013672-0.95625-73.29902344-27.18720703-140.74101562-70.18330079-194.18291015l205.19648438-205.790625v243.14941406zM584.26542969 788.19628906c-45.928125 47.14541016-107.465625 73.58466797-173.28691407 74.45039063l-3.32314453 0.01845703c-134.04111328 0-244.5328125-109.08544922-246.29501953-243.17314453-0.86660156-65.80898438 23.95195312-128.01708984 69.87480469-175.16777344 45.928125-47.15068359 107.465625-73.58994141 173.27988281-74.45566406l3.31699219-0.02373047c134.0578125 0 244.54951172 109.09072266 246.30117187 243.19072265 0.87275391 65.80371094-23.94667969 128.0109375-69.86865234 175.1625z" fill="#1296db" p-id="18366"></path></svg>