<?xml version="1.0" standalone="no"?><!DOCTYPE svg PUBLIC "-//W3C//DTD SVG 1.1//EN" "http://www.w3.org/Graphics/SVG/1.1/DTD/svg11.dtd"><svg t="1567147558328" class="icon" viewBox="0 0 1024 1024" version="1.1" xmlns="http://www.w3.org/2000/svg" p-id="37863" xmlns:xlink="http://www.w3.org/1999/xlink" width="200" height="200"><defs><style type="text/css"></style></defs><path d="M953.323 326.804l-407.985-295.745c-27.958-20.291-68.425-19.858-95.979 1.025l-389.008 294.98c-20.16 15.279-32.19 39.511-32.19 64.813v532.558c0 44.839 36.493 81.335 81.335 81.335h796.084c44.839 0 81.335-36.493 81.335-81.335v-531.763c0-25.98-12.563-50.603-33.59-65.867zM942.551 924.434c0 20.391-16.579 36.97-36.97 36.97h-796.084c-20.391 0-36.97-16.579-36.97-36.97v-532.558c0-11.51 5.474-22.514 14.628-29.459l389.008-294.981c6.354-4.81 13.922-7.366 21.879-7.366 7.683 0 15.035 2.384 21.244 6.901l407.985 295.746c9.574 6.947 15.279 18.138 15.279 29.951v531.763zM680.572 641.056c1.036-1.491 2.086-2.971 2.987-4.57l93.711-166.583c10.065-17.907 9.892-39.18-0.477-56.913-10.383-17.733-28.838-28.319-49.376-28.319h-447.149c-20.955 0-39.598 10.905-49.851 29.17-10.269 18.267-9.892 39.871 1.011 57.781l101.509 166.583c0.614 1.005 1.347 1.91 2.015 2.866l-133.852 156.161c-7.972 9.301-6.901 23.308 2.397 31.28 4.188 3.597 9.316 5.344 14.428 5.344 6.252 0 12.463-2.627 16.854-7.741l138.209-161.243c2.898 0.459 5.831 0.77 8.805 0.77h251.916c3.084 0 6.109-0.325 9.099-0.809l127.071 160.604c4.389 5.531 10.874 8.42 17.415 8.42 4.823 0 9.675-1.558 13.748-4.78 9.605-7.611 11.235-21.559 3.638-31.165l-124.103-156.858zM269.317 448.545c-3.537-5.791-1.344-11.006-0.231-12.969 1.098-1.965 4.404-6.541 11.179-6.541h447.151c6.643 0 9.95 4.448 11.076 6.354 1.111 1.907 3.364 6.975 0.101 12.766l-93.711 166.595c-2.269 4.030-6.541 6.529-11.179 6.529h-251.917c-4.448 0-8.65-2.353-10.96-6.151l-101.51-166.585z" p-id="37864"></path></svg>